# Blender 4.0.2
# www.blender.org
mtllib WeirdCube.mtl
o WeirdCube
v 1.000000 1.000000 -1.000000
v 1.000000 -1.000000 -1.000000
v 1.000000 1.000000 1.000000
v 1.000000 -1.000000 1.000000
v -1.000000 1.000000 -1.000000
v -1.000000 -1.000000 -1.000000
v -1.000000 1.000000 1.000000
v -1.000000 -1.000000 1.000000
v 2.307606 1.000000 -1.000000
v 2.307606 -1.000000 -1.000000
v 2.307606 1.000000 1.000000
v 2.307606 -1.000000 1.000000
v 1.000000 0.829924 -1.000000
v 1.000000 0.829924 1.000000
v 2.307606 0.829924 -1.000000
v 2.307606 0.829924 1.000000
v 0.867681 1.000000 -1.000000
v 0.867681 1.000000 1.000000
v 0.867681 0.829924 -1.000000
v 0.867681 0.829924 1.000000
v 1.000000 0.703494 -1.000000
v 1.000000 0.703494 1.000000
v 0.867681 0.703494 -1.000000
v 0.867681 0.703494 1.000000
v 1.000000 0.829924 2.680208
v 0.867681 0.829924 2.680208
v 1.000000 0.703494 2.680208
v 0.867681 0.703494 2.680208
v 1.000000 0.829924 -2.987158
v 1.000000 1.000000 -2.987158
v 0.867681 0.829924 -2.987158
v 0.867681 1.000000 -2.987158
vn -0.0000 1.0000 -0.0000
vn -0.0000 -0.0000 1.0000
vn -1.0000 -0.0000 -0.0000
vn -0.0000 -1.0000 -0.0000
vn -0.0000 -0.0000 -1.0000
vn 1.0000 -0.0000 -0.0000
vt 0.625000 0.500000
vt 0.875000 0.500000
vt 0.875000 0.750000
vt 0.625000 0.750000
vt 0.375000 0.750000
vt 0.625000 1.000000
vt 0.375000 1.000000
vt 0.375000 0.000000
vt 0.625000 0.000000
vt 0.625000 0.250000
vt 0.375000 0.250000
vt 0.125000 0.500000
vt 0.375000 0.500000
vt 0.125000 0.750000
s 0
usemtl Material
f 1/1/1 5/2/1 7/3/1 3/4/1
f 4/5/2 3/4/2 7/6/2 8/7/2
f 8/8/3 7/9/3 5/10/3 6/11/3
f 6/12/4 2/13/4 4/5/4 8/14/4
f 3/4/2 4/5/2 12/5/2 11/4/2
f 6/11/5 5/10/5 1/1/5 2/13/5
f 10/13/6 9/1/6 11/4/6 12/5/6
f 2/13/5 1/1/5 9/1/5 10/13/5
f 4/5/4 2/13/4 10/13/4 12/5/4
f 11/4/3 9/1/3 15/1/3 16/4/3
f 13/1/1 14/4/1 16/4/1 15/1/1
f 3/4/5 11/4/5 16/4/5 14/4/5
f 3/4/5 14/4/5 20/4/5 18/4/5
f 9/1/2 1/1/2 13/1/2 15/1/2
f 17/1/6 18/4/6 20/4/6 19/1/6
f 13/1/2 19/1/2 23/1/2 21/1/2
f 1/1/4 3/4/4 18/4/4 17/1/4
f 19/1/1 13/1/1 29/1/1 31/1/1
f 22/4/1 21/1/1 23/1/1 24/4/1
f 20/4/4 14/4/4 25/4/4 26/4/4
f 14/4/3 13/1/3 21/1/3 22/4/3
f 19/1/6 20/4/6 24/4/6 23/1/6
f 26/4/5 25/4/5 27/4/5 28/4/5
f 24/4/6 20/4/6 26/4/6 28/4/6
f 14/4/3 22/4/3 27/4/3 25/4/3
f 22/4/1 24/4/1 28/4/1 27/4/1
f 29/1/2 30/1/2 32/1/2 31/1/2
f 1/1/4 17/1/4 32/1/4 30/1/4
f 17/1/6 19/1/6 31/1/6 32/1/6
f 13/1/3 1/1/3 30/1/3 29/1/3
